<?xml version="1.0" encoding="utf-8" ?>	<!-- Generator: Assembly 1.8 - http://assemblyapp.co -->	<svg version="1.1" xmlns="http://www.w3.org/2000/svg" xmlns:xlink="http://www.w3.org/1999/xlink" width="2048.00" height="2048.00" viewBox="0 0 2048.0 2048.0">		<g id="document" transform="matrix(1,0,0,1,1024.0,1024.0)">			<path d="M-1386.03,238.335 M-1386.03,238.335 C-1386.03,238.335 -897.286,-64.7149 -897.286,140.123 C-897.286,344.962 -703.085,303.134 -703.085,188.471 C-703.085,73.8075 -600.048,5.85826 -584.857,-12.5967 C-569.946,-30.7105 -542.568,-37.6508 -519.359,-90.4841 C-482.812,-173.681 -555.87,-304.228 -680.169,-284.295 C-804.469,-264.362 -823.586,-132.865 -777.444,-65.5792 C-748.777,-23.7749 -716.629,2.37587 -648.749,0.692704 C-580.87,-0.990438 -414.49,2.34393 -356.448,-23.1797 C-199.022,-92.408 -198.917,-178.135 -80.4443,-227.186 C38.0282,-276.236 132.624,-213.106 160.147,-212.667 " fill="none" stroke-width="6.96" stroke="#ffffff" stroke-dasharray="6.962897,20.888691" stroke-dashoffset="-6.9629" stroke-linecap="round" stroke-linejoin="round" />			<path d="M1154.08,-165.184 M1154.08,-165.184 C996.652,-95.9557 1046.21,-334.225 928.847,-375.147 C872.616,-394.753 798.746,-366.685 798.746,-289.079 C798.746,-225.437 873.445,-205.262 833.143,-142.199 C813.754,-111.86 754.462,-101.02 678.562,-101.02 C501.969,-101.02 182.388,-209.338 170.877,-209.522 " fill="none" stroke-width="6.96" stroke="#ffffff" stroke-dasharray="6.962897,20.888691" stroke-dashoffset="-6.9629" stroke-linecap="round" stroke-linejoin="round" />			<path d="M763.803,-106.045 M763.803,-106.045 C848.599,-116.189 942.856,12.8759 961.906,62.578 C1011.58,192.167 969.499,265.168 927.714,321.602 C844.71,433.704 632.447,332.86 763.803,195.066 " fill="none" stroke-width="6.96" stroke="#ffffff" stroke-dasharray="6.962897,20.888691" stroke-dashoffset="-6.9629" stroke-linecap="round" stroke-linejoin="round" />			<path d="M-773.017,237.212 C-773.504,236.682 -773.922,236.113 -774.409,235.583 L-790.559,244.907 C-790.031,246.134 -789.521,247.642 -789.331,249.064 C-789.102,250.553 -789.086,251.985 -789.496,253.303 C-789.945,254.554 -790.714,255.719 -792.269,256.616 L-791.449,258.035 L-762.662,241.415 L-763.481,239.996 C-765.036,240.893 -766.39,241.044 -767.737,240.741 C-769.616,240.294 -771.52,238.87 -773.017,237.212 Z M-778.918,172.683 L-842.642,209.474 C-843.723,210.098 -844.027,211.445 -843.442,212.459 L-819.253,254.355 C-818.628,255.437 -817.282,255.74 -816.268,255.155 L-752.544,218.364 C-751.463,217.74 -751.159,216.393 -751.745,215.38 L-775.934,173.483 C-776.519,172.469 -777.905,172.098 -778.918,172.683 Z M-757.968,215.369 L-816.218,248.999 L-837.247,212.576 L-778.997,178.945 L-757.968,215.369 Z " fill="#ffffff" fill-opacity="1.00" />			<path d="M941.774,-313.457 L915.592,-339.639 C913.099,-342.132 908.984,-342.132 906.491,-339.639 L853.255,-286.402 C850.761,-283.909 850.761,-279.794 853.255,-277.301 L879.436,-251.119 C881.93,-248.626 886.044,-248.626 888.538,-251.119 L941.774,-304.355 C944.268,-306.849 944.33,-310.901 941.774,-313.457 Z M921.826,-325.675 L927.748,-319.753 L925.753,-317.758 L919.831,-323.68 L921.826,-325.675 Z M868.714,-266.579 C867.094,-268.2 867.156,-270.755 868.714,-272.314 C870.335,-273.935 872.891,-273.872 874.449,-272.314 C876.07,-270.693 876.008,-268.137 874.449,-266.579 C872.891,-265.02 870.335,-264.958 868.714,-266.579 Z M890.595,-259.909 L862.107,-288.397 L904.496,-330.787 L932.984,-302.298 L890.595,-259.909 Z " fill="#ffffff" fill-opacity="1.00" />			<path d="M-618.825,-184.707 L-716.682,-128.209 L-715.702,-109.87 L-603.317,-174.756 L-618.825,-184.707 Z M-673.716,-138.604 L-673.983,-146.044 L-655.271,-156.847 L-649.31,-152.695 L-673.716,-138.604 Z M-622.447,-186.955 C-622.514,-187.071 -622.514,-187.071 -622.581,-187.187 C-622.648,-187.304 -622.648,-187.304 -622.715,-187.42 L-656.534,-245.995 C-657.406,-247.506 -659.239,-247.997 -660.75,-247.125 L-749.891,-195.659 C-751.402,-194.787 -751.893,-192.954 -751.021,-191.443 L-717.203,-132.867 C-717.136,-132.751 -717.136,-132.751 -717.068,-132.635 C-717.001,-132.519 -717.001,-132.519 -716.934,-132.403 L-622.447,-186.955 Z M-631.688,-187.663 L-712.694,-140.894 L-741.883,-191.45 L-660.877,-238.219 L-631.688,-187.663 Z M-599.811,-172.441 L-715.45,-105.676 L-715.463,-104.894 C-714.591,-103.383 -711.953,-101.497 -710.442,-102.37 L-599.567,-166.383 C-598.057,-167.255 -598.371,-170.483 -599.243,-171.994 L-599.811,-172.441 Z " fill="#ffffff" fill-opacity="1.00" />			<path d="M-368.614,142.069 L-432.648,121.037 C-434.594,120.398 -436.779,121.425 -437.449,123.464 L-465.542,208.997 C-466.181,210.943 -465.154,213.129 -463.115,213.798 L-399.081,234.83 C-397.135,235.469 -394.949,234.442 -394.28,232.403 L-366.187,146.87 C-365.517,144.831 -366.575,142.739 -368.614,142.069 Z M-430.534,222.754 C-431.831,222.328 -432.516,220.974 -432.09,219.677 C-431.664,218.379 -430.31,217.695 -429.012,218.121 C-427.715,218.547 -427.03,219.901 -427.456,221.198 C-427.883,222.496 -429.237,223.18 -430.534,222.754 Z M-399.275,225.732 L-457.471,206.618 L-432.33,130.073 L-374.134,149.188 L-399.275,225.732 Z " fill="#ffffff" fill-opacity="1.00" />			<path d="M884.41,264.001 L842.715,239.928 C837.918,237.158 834.303,232.98 834.815,230.816 C835.235,228.598 831.712,224.474 826.915,221.704 L813.724,214.088 C808.927,211.319 802.617,213.087 799.741,218.069 L790.634,233.843 L764.537,279.044 L763.259,281.258 C761.129,284.947 762.323,289.696 765.921,291.773 L844.976,337.415 C848.574,339.493 853.283,338.153 855.413,334.463 L856.692,332.249 L882.788,287.048 L888.008,278.008 C890.83,273.119 889.207,266.77 884.41,264.001 Z M811.022,218.555 L824.213,226.171 C827.35,227.982 829.045,229.945 829.663,230.793 C829.295,236.116 834.9,241.32 840.158,244.355 L881.854,268.428 C884.252,269.813 885.11,273.014 883.672,275.505 L882.128,278.18 C881.642,277.53 881.01,276.92 880.18,276.441 L801.125,230.798 C800.387,230.372 799.542,230.13 798.644,229.981 L804.077,220.572 C805.515,218.081 808.624,217.17 811.022,218.555 Z M852.211,329.785 C850.773,332.275 847.664,333.186 845.173,331.748 L770.453,288.609 C768.055,287.224 767.197,284.023 768.635,281.533 L794.732,236.332 C795.424,235.133 797.025,234.704 798.224,235.396 L877.279,281.039 C878.478,281.731 878.907,283.332 878.215,284.531 L852.118,329.731 L852.211,329.785 Z " fill="#ffffff" fill-opacity="1.00" />			<path d="M-525.213,0 M-525.213,0 C-484.086,1.57333e-05 -431.707,39.0406 -392.173,80.9704 C-367.702,106.924 -348.153,133.984 -339.241,153.578 C-324.591,185.785 -344.649,245.871 -393.993,255.833 C-443.336,265.796 -492.65,241.893 -498.261,185.31 " fill="none" stroke-width="6.96" stroke="#ffffff" stroke-dasharray="6.962897,20.888691" stroke-dashoffset="-6.9629" stroke-linecap="round" stroke-linejoin="round" />			<path d="M618.621,296.504 M618.621,296.504 C625.667,296.504 666.02,339.466 606.997,349.186 C554.476,357.835 558.479,283.687 593.4,260.038 C628.321,236.389 704.408,245.489 727.591,307.765 " fill="none" stroke-width="6.96" stroke="#ffffff" stroke-dasharray="6.962897,20.888691" stroke-dashoffset="-6.9629" stroke-linecap="round" stroke-linejoin="round" />		</g>	</svg>